<?xml version="1.0" encoding="utf-8"?>
<!-- Generator: Adobe Illustrator 27.5.0, SVG Export Plug-In . SVG Version: 6.00 Build 0)  -->
<svg version="1.1" id="Слой_1" xmlns="http://www.w3.org/2000/svg" xmlns:xlink="http://www.w3.org/1999/xlink" x="0px" y="0px"
	 viewBox="0 0 1920 1080" style="enable-background:new 0 0 1920 1080;" xml:space="preserve">
<path d="M923.83,559.36c0.9,1.66,2.18,3.12,3.65,4.31c2.03,1.65,4.43,2.78,6.92,3.55c0,0.01-0.01,0.03-0.01,0.05
	c-0.19,0.94,0.07,2,0.8,2.63c1.01,0.88,2.54,0.73,3.79,1.19c1.02,0.38,1.82,1.15,2.62,1.89c2.81,2.64,5.79,5.1,8.9,7.36
	c3.15,2.29,6.62,4.44,10.5,4.77c0.19,0.02,0.38,0.03,0.58,0.03c0.57,0,1.14-0.09,1.6-0.43c0.89-0.64,1.02-1.98,0.59-2.99
	c-0.44-1-1.3-1.75-2.15-2.45c-0.82-0.68-1.65-1.35-2.5-2.01c-0.06-0.05-0.12-0.09-0.18-0.14c4.02,1.38,8.13,2.36,12.27,2.86
	c0.7,0.08,1.41,0.12,2.12,0.12c0.5,0,1-0.02,1.5-0.06c3.56-0.28,7.08-0.86,10.55-1.8c4.05-1.1,7.73-3.37,10.62-6.49
	c0.01-0.01,0.02-0.02,0.03-0.03c1.31-1.42,2.6-3.23,2.22-5.1c-0.53-2.64-3.9-3.51-5.22-5.83c-1.26-2.2-0.4-5.26-1.78-7.39
	c-0.48-0.74-1.2-1.31-1.95-1.84c-0.72-0.51-1.48-0.99-2.09-1.55c-0.56-0.53-1-1.13-1.18-1.91c-0.05-0.24-0.07-0.48-0.07-0.72
	c0.01-2.14,2.15-3.97,3.24-6c1.49-2.77,1.01-6.11,0.48-9.18c-0.16-0.91-0.36-1.9-1.06-2.5c-0.44-0.38-0.99-0.52-1.58-0.52
	c-0.75,0-1.56,0.23-2.28,0.49c-3.35,1.19-6.61,2.62-9.77,4.26c-9.49,4.9-18.13,11.6-26,18.98c-2.37,2.23-4.71,4.56-6.55,7.23
	c2.32-5.75,5.92-11.14,10.27-15.2c5.57-5.2,11.89-9.32,18.4-13.24c1-0.61,1.1-2.02,0.2-2.76c-0.73-0.6-1.36-1.4-1.88-2.17
	c-1.1-1.65-2.3-3.53-4.24-3.89c-0.25-0.04-0.5-0.06-0.75-0.06c-1.01,0-2.05,0.3-3.06,0.3c-0.38,0-0.77-0.04-1.14-0.17
	c-1.56-0.53-2.34-2.22-3.51-3.36c-2.2-2.14-5.62-2.23-8.44-3.43c-6.42-2.74-8.76-10.61-13.91-15.32c-2.06-1.89-4.55-3.24-7-4.56
	c-0.39-0.21-0.81-0.42-1.23-0.42c-0.31,0-0.63,0.11-0.94,0.43c-0.26,0.28-0.43,0.63-0.5,1c-2.34,12.02-1.27,24.52,1.79,36.37
	c2.58,10.02,6.73,20.58,11.3,30.17c-0.5,0.11-0.98,0.33-1.41,0.63c-0.17,0.12-0.34,0.25-0.5,0.4c-0.09,0.08-0.18,0.16-0.26,0.24
	c-0.44-0.36-0.86-0.74-1.25-1.14c-1.86-1.9-3.22-4.26-3.97-6.81c-0.29-1-0.48-2.03-0.58-3.06c0.01-0.03,0.02-0.06,0.02-0.09
	c0-0.65,0.03-1.31-0.02-1.95c-0.02-0.24-0.13-0.5-0.39-0.56c-0.03-0.01-0.07-0.01-0.1-0.01c-0.19,0-0.37,0.11-0.48,0.27
	c-0.35,0.47-0.07,1.14,0.08,1.64c0.2,0.64,0.4,1.29,0.6,1.93c0.01,0.03,0.02,0.05,0.04,0.07c0.31,1.84,0.93,3.63,1.83,5.27
	c1,1.82,2.34,3.43,3.93,4.75c-0.36,0.42-0.65,0.89-0.82,1.4c-1.01-0.31-2-0.68-2.96-1.12c-2.34-1.08-4.49-2.62-6.1-4.64
	c-0.32-0.4-0.61-0.81-0.88-1.23c0-0.01,0-0.01,0-0.02c-0.13-0.33-0.26-0.67-0.4-1.01c0.02-0.04,0.03-0.09,0.02-0.15
	c-0.16-0.62-0.29-1.27-0.49-1.88c-0.08-0.23-0.24-0.45-0.5-0.45h-0.01c-0.23,0-0.42,0.17-0.51,0.38c-0.22,0.55,0.21,1.13,0.48,1.57
	C923.39,558.63,923.61,559,923.83,559.36z"/>
</svg>
