<?xml version="1.0" encoding="utf-8"?>
<!-- Generator: Adobe Illustrator 27.5.0, SVG Export Plug-In . SVG Version: 6.00 Build 0)  -->
<svg version="1.1" id="Слой_1" xmlns="http://www.w3.org/2000/svg" xmlns:xlink="http://www.w3.org/1999/xlink" x="0px" y="0px"
	 viewBox="0 0 1920 1080" style="enable-background:new 0 0 1920 1080;" xml:space="preserve">
<g>
	<g>
		<path d="M885.14,494.35c3.63-2.13,7.19-3.47,10.71-4.04l2.97-0.34h2.2l1.67-7.05c-2.41,0.39-4.85,1.01-7.3,1.87
			c-2.46,0.86-5.01,1.95-7.66,3.3c-4.59,2.35-8.89,5.21-12.88,8.58l3.13,2.88C880.41,497.48,882.8,495.74,885.14,494.35z"/>
		<path d="M893.18,567.11c-14.81-11.36-92.74-17.8-141.82-12.41c-23.06,2.1-46.18,3.67-69.16,6.43
			c-13.89,1.66-27.57,5.13-41.34,7.79c0.1,0.42,0.2,0.84,0.3,1.26c10.02-1.16,20.06-2.16,30.06-3.5
			c37.82-5.06,75.86-7.53,113.98-6.74c32.25,0.67,64.44,3.51,95.38,14.29c4.65,1.62,8.93,4.36,13.42,6.49
			c1.15,0.55,2.97,1.41,3.57,0.94c1.01-0.8,1.71-2.53,1.8-3.92C899.67,572.86,897.47,568.87,893.18,567.11z"/>
		<path d="M908.28,506.82c-0.1-1.1-0.34-2.04-0.72-2.83c-0.38-0.78-0.99-1.54-1.81-2.26c-1.57-1.41-3.85-2.08-6.83-2.03
			c-6.04,0.11-12.52,3.06-19.45,8.86c-3.63,3.05-6.52,6.12-8.68,9.22c-2.29,3.36-3.81,6.77-4.56,10.25l-2.4,1.64l-0.74,2.6
			l-0.27,0.13c-1.89,0.92-2.97,1.4-3.23,1.44l-1.16,0.02c-0.55-0.14-1.08-0.4-1.56-0.8c-0.23-0.25-0.37-0.44-0.43-0.57
			c-0.05-0.13-0.12-0.41-0.2-0.86c-0.01-0.58,0.1-1.45,0.34-2.6c0.06-0.26,0.15-0.68,0.25-1.27c0.14-0.56,0.29-1.11,0.46-1.67
			c0.88-2.74,2.14-5.99,3.81-9.74l6.14-14.69l-8.14-3.83c-5.03,9.04-10.51,17.41-16.45,25.1c-6.55,8.26-11.1,12.41-13.64,12.46
			c-1.73,0.03-2.67-1.08-2.82-3.32c-0.01-0.7,0.03-1.34,0.13-1.94l0.24-1.71l-4.34,2.27c1.99-3.21,3.37-6.6,4.14-10.17
			c0.54-2.74,0.75-5.58,0.62-8.52l-0.27-2.7l-0.43-2.48l-10,3l0.37,2.04l0.03,1.93c0.2,2.87,0.03,5.56-0.52,8.08
			c-0.71,3.36-1.98,6.38-3.81,9.07c-3.05,4.51-6.32,6.8-9.82,6.86c-0.7,0.02-1.32-0.08-1.86-0.29c-0.53-0.22-1.05-0.52-1.53-0.92
			c-1.2-1.08-1.85-2.65-1.97-4.71c-0.05-1.18,0.04-2.32,0.27-3.43c0.68-3.29,2.53-6.93,5.55-10.93c4.68-6.24,10.6-10.53,17.78-12.87
			l-2.22-6.53c-4.86,1.86-9.23,4.03-13.09,6.51c-3.85,2.48-7.17,5.24-9.96,8.27c-4.33,4.69-7.03,9.49-8.08,14.4
			c-0.36,1.68-0.51,3.43-0.46,5.25c-1.66,1.14-3.56,2.3-5.68,3.48c-1.79,1.03-3.3,1.8-4.55,2.3c-1.24,0.5-2.23,0.76-2.96,0.77
			c-1.22,0.02-1.86-0.72-1.92-2.23l-0.13-0.88l0.21-0.78c-0.01-0.15,0.03-0.37,0.09-0.67c0.07-0.25,0.18-0.53,0.32-0.83
			c0.32-0.96,0.63-1.72,0.95-2.28c0.15-0.3,0.23-0.54,0.27-0.73c0.1-0.36,0.15-0.77,0.14-1.21c-0.09-1.14-0.4-2.06-0.93-2.75
			c-0.64-0.8-1.48-1.19-2.51-1.17l-2.7,0.44l-0.12-0.61c0.61-0.89,1.33-1.62,2.17-2.19c1.2-1.05,2.41-2.07,3.65-3.05
			c1.23-0.98,2.37-1.85,3.43-2.61c4.37-2.95,9.41-5.88,15.14-8.78l-4.44-7.27c-6.41,4.02-11.92,8.08-16.52,12.18
			c-2.79,2.48-5.95,5.71-9.49,9.68l-4.66,4.83l-0.62-0.21l11.42-22.36l-7.87-4.39l-14.21,31.95l0.5-1.81l-5.47,2.92l-3.18,1.66
			c-0.65,0.31-1.24,0.46-1.75,0.47c-1.18,0.02-1.82-0.57-1.92-1.79c0-0.36,0.03-0.66,0.1-0.88c0-0.15,0.05-0.37,0.15-0.67
			c0.11-0.29,0.21-0.53,0.32-0.72l10.85-23.18l-7.8-3.67c-2.21,4.24-4.81,8.13-7.8,11.69c-1.91,2.17-4.8,5.19-8.68,9.05
			c-1.84,1.87-3.27,3.28-4.28,4.22c-1.02,0.94-1.96,1.77-2.83,2.48c-1.16,0.95-2.2,1.42-3.12,1.44l-0.73-0.32
			c-0.33-0.25-0.51-0.6-0.51-1.04l-0.12-0.55l0.84-2.39l11.91-25.24l-7.97-3.78l-11.64,24.85c-1.44,3.16-2.56,5.89-3.36,8.17
			c-3.8,2.29-6.57,3.45-8.32,3.48c-1.51,0.03-2.48-0.78-2.91-2.43c-0.44-1.47-0.35-3.02,0.24-4.65l7.43-20.19l6.41,0.27l4.91-9.37
			c-1.3-0.56-3.38-0.99-6.26-1.27c5.98-11.3,10.43-19.8,13.35-25.49l-8.5-5.26l-17.18,33.13c-9.27,0.69-15.9,1.06-19.87,1.14
			c0.7-1.6,2.91-6.69,6.63-15.26c2.68-6.24,4.98-11.35,6.9-15.32l-9.48-4.58c-5.96,12.19-11.24,24.51-15.84,36.97
			c-6.5,1.08-11.2,1.96-14.1,2.63l-2.15,9.21c2.63-0.89,6.56-1.79,11.77-2.7c-5.5,11.34-10.29,21.65-14.35,30.93l10.82,2.9
			l16.31-35.99c5.72-1.25,12.19-1.94,19.41-2.07c-0.25,0.71-1.06,2.71-2.43,6.01c-1.35,3.12-2.4,5.74-3.17,7.85
			c-5.69,15.46-4,23.11,5.05,22.95c4.33-0.08,8.94-1.62,13.84-4.63c0.21,1.26,0.69,2.29,1.44,3.11c0.94,1.03,2.17,1.53,3.68,1.51
			c2.32-0.05,5.22-1.32,8.71-3.84c3.49-2.51,7.41-6.14,11.74-10.9l2.22-2.42l2.44-2.31l0.46,0.55c-3.09,4.81-4.88,8.43-5.39,10.87
			c-0.07,0.3-0.11,0.7-0.14,1.22l0.09,2.04c0.13,0.81,0.36,1.5,0.7,2.06c0.34,0.57,0.78,1.01,1.3,1.33
			c0.97,0.65,2.04,0.96,3.22,0.94c0.73-0.02,1.79-0.28,3.16-0.78s2.99-1.2,4.85-2.08c1.68-0.84,3.09-1.6,4.22-2.28
			c0.82-0.48,1.57-0.93,2.24-1.35l-2.12,4.77l8.32,2.22c2.44-3.65,5.03-7.05,7.78-10.19c3.32-3.75,5.47-5.63,6.47-5.64l0.33,0.1
			l0.67,0.54l-0.04,0.44c0,0.19-0.02,0.39-0.05,0.61c-0.07,0.37-0.13,0.59-0.21,0.67l-0.79,1.84c-0.25,0.63-0.44,1.24-0.58,1.83
			c-0.1,0.59-0.18,1.15-0.24,1.69c-0.07,0.54-0.07,1.1-0.03,1.68c0.18,1.77,0.67,3.23,1.46,4.4c1.32,1.63,3.16,2.43,5.52,2.38
			c2.21-0.04,4.5-0.5,6.88-1.39c3.99-1.47,7.88-4.03,11.68-7.67l0.27-0.95c0.5,1.69,1.25,3.12,2.23,4.27
			c2.25,2.47,5.59,3.66,10.01,3.58c6.36-0.12,12.23-2.97,17.61-8.56c0.01,0.28,0.02,0.58,0.04,0.89c0.2,2.65,1.17,4.55,2.92,5.69
			c1.61,1.04,3.49,1.54,5.67,1.5c3.16-0.06,6.34-1.42,9.54-4.09c3.19-2.68,7.85-8.51,13.99-17.5l1.28,0.64l-1.07,2.18
			c-0.93,1.45-1.86,3.51-2.81,6.18c-0.35,1.08-0.61,2.02-0.78,2.83c-0.27,1.22-0.38,2.31-0.33,3.27c0.08,2.06,0.9,3.63,2.47,4.71
			c1.15,0.9,2.47,1.33,3.94,1.31c0.59-0.02,1.37-0.21,2.34-0.6s2.05-0.9,3.26-1.55c2.7-1.45,5.56-3.2,8.58-5.24l0.04-0.13
			c0.63,1.82,1.77,3.33,3.44,4.54c2.37,1.73,5.12,2.56,8.25,2.5c3.24-0.05,6.96-0.76,11.15-2.1c4.19-1.35,7.96-3.16,11.31-5.43
			l2.13-7.39c-3.42,2.2-6.89,3.97-10.4,5.3c-3.51,1.34-6.5,2.03-8.97,2.07c-4.53,0.08-6.88-1.42-7.04-4.51l0.19-1.39
			c12.76-3.51,21.67-7.77,26.73-12.8c2.57-2.52,4.13-5.07,4.67-7.66C908.31,508.94,908.37,507.93,908.28,506.82z M896.48,510.2
			c-0.03,0.18-0.09,0.39-0.18,0.64c-0.09,0.24-0.18,0.45-0.29,0.64c-1.61,2.71-4.01,5.13-7.22,7.25c-3.34,2.31-7.2,4.09-11.56,5.35
			c0.71-1.67,1.68-3.4,2.92-5.19c1.24-1.79,2.72-3.58,4.46-5.38c3.87-4.05,7.16-6.1,9.89-6.15c1.32-0.02,2.02,0.63,2.08,1.95
			C896.58,509.68,896.55,509.97,896.48,510.2z"/>
	</g>
	<g>
		<path d="M749.96,587.05c-0.76,0.01-1.51,0.23-2.24,0.64c-0.27,0.15-0.62,0.38-1.05,0.68c-0.43,0.29-0.86,0.6-1.3,0.93l-0.18-0.12
			l3.07-6.91l-2.54-1.09l-3.24,6.89c-0.44-0.51-0.94-0.9-1.51-1.15c-0.55-0.21-1.11-0.31-1.68-0.3c-2.17,0.04-4.41,1.15-6.71,3.32
			c-1.85,1.8-3,3.75-3.43,5.87c-0.19,0.87-0.26,1.8-0.2,2.78c0.05,0.98,0.32,1.81,0.81,2.47c0.48,0.65,1.21,0.97,2.17,0.96
			c0.83-0.02,1.64-0.2,2.45-0.56c1.08-0.49,2.11-1.23,3.1-2.21l0.23,0.2c-0.96,1.96-1.48,3.01-1.56,3.13
			c-0.41,0.86-0.83,1.75-1.26,2.67c-0.43,0.91-0.86,1.87-1.3,2.87c-0.44,1-0.86,2.02-1.29,3.06l3.59,0.62l1.55-4.39
			c1.89-5.28,3.29-8.84,4.21-10.69c2.18-4.27,4.29-6.42,6.34-6.46c0.83-0.01,1.25,0.31,1.28,0.95c0.02,0.47-0.01,0.92-0.1,1.37
			c-0.27,1.21-0.92,2.49-1.97,3.83c-1.77,2.24-3.81,3.38-6.14,3.42l0.12,2.1c0.18,0.03,0.35,0.04,0.52,0.03h0.41
			c2.99-0.06,5.64-1.23,7.95-3.51c1.65-1.67,2.67-3.42,3.05-5.24c0.15-0.72,0.2-1.47,0.16-2.24c-0.08-1.18-0.38-2.12-0.92-2.81
			C751.82,587.4,751.02,587.03,749.96,587.05z M739.17,592.53c-0.53,1.04-0.98,1.87-1.34,2.5c-0.44,0.74-0.82,1.32-1.15,1.74
			c-1.29,1.66-2.58,2.5-3.87,2.52c-0.39,0.01-0.63-0.1-0.73-0.33c-0.2-0.19-0.32-0.46-0.35-0.8l-0.05-0.81
			c0-0.27,0.04-0.55,0.1-0.82c0.28-1.39,1.07-2.84,2.36-4.36c1.61-1.88,3.12-2.83,4.54-2.85c0.78-0.02,1.33,0.25,1.66,0.81
			L739.17,592.53z"/>
		<path d="M769.41,595.76c-3.59,1.76-6.09,2.65-7.51,2.68c-0.83,0.01-1.46-0.28-1.91-0.89c-0.44-0.6-0.51-1.33-0.21-2.17
			c0.63-1.72,1.37-3.25,2.23-4.59c1.27-2.04,2.48-3.08,3.64-3.1c0.96-0.02,1.26,0.46,0.89,1.43c-0.01,0.04-0.14,0.3-0.38,0.77
			l3,1.52c0.39-0.63,0.74-1.37,1.06-2.23c0.46-1.24,0.4-2.31-0.18-3.22c-0.59-0.91-1.48-1.36-2.69-1.34
			c-2.23,0.04-4.51,1.11-6.84,3.19c-2.19,1.92-3.7,4.04-4.54,6.34c-0.8,2.19-0.87,3.94-0.21,5.27c0.7,1.4,2.12,2.08,4.27,2.05
			c2.08-0.04,4.96-0.98,8.65-2.82L769.41,595.76z"/>
		<path d="M696.12,599.96l0.75-2.88l-2.87,1.27c-0.5,0.2-0.9,0.3-1.19,0.31c-0.36,0.01-0.54-0.17-0.54-0.53c0-0.04,0-0.12,0.01-0.23
			c0.05-0.23,0.16-0.56,0.34-0.97l0.47-1.15c0.23-0.33,0.45-0.69,0.65-1.06c0.21-0.38,0.39-0.72,0.53-1.02
			c0.64-1.25,1.03-2.2,1.17-2.85c0.04-0.16,0.06-0.27,0.05-0.36c0-0.08,0.01-0.19,0.02-0.33c-0.04-0.78-0.29-1.42-0.74-1.92
			c-0.46-0.48-1.04-0.71-1.73-0.7c-0.72,0.02-1.67,0.48-2.84,1.4c-0.77,0.62-1.6,1.39-2.48,2.31c-0.88,0.93-1.85,2.04-2.91,3.34
			l-0.34-0.26l3.18-7.12l-2.83-1.29l-7.14,16.32l2.9,0.87l2.95-3.77c0.83-1.11,1.52-1.99,2.06-2.61l1.23-1.41
			c1.37-1.6,2.22-2.55,2.58-2.87c0.35-0.31,0.72-0.5,1.12-0.54l0.25-0.01l0.19,0.12c0.05,0.08,0.08,0.18,0.08,0.29
			c0.02,0.11,0.02,0.22-0.01,0.33c-0.03,0.14-0.08,0.31-0.18,0.52l-0.47,0.98c-1,2.01-1.62,3.42-1.87,4.23
			c-0.04,0.11-0.09,0.26-0.16,0.46c-0.06,0.2-0.11,0.37-0.13,0.51c-0.09,0.44-0.12,0.82-0.1,1.14c0.04,0.74,0.3,1.31,0.78,1.69
			c0.48,0.38,1.01,0.57,1.59,0.56c0.45-0.01,1.06-0.21,1.83-0.59C693.08,601.79,694.35,601.07,696.12,599.96z"/>
		<path d="M728.43,587.87l-3.74,1.12l0.14,0.76l0.01,0.73c0.08,1.07,0.01,2.08-0.19,3.02c-0.27,1.25-0.74,2.38-1.43,3.39
			c-1.13,1.69-2.36,2.54-3.67,2.56c-0.26,0.01-0.49-0.03-0.69-0.11c-0.2-0.08-0.39-0.19-0.57-0.34c-0.45-0.4-0.7-0.99-0.74-1.76
			c-0.02-0.44,0.01-0.87,0.1-1.28c0.25-1.23,0.95-2.59,2.08-4.09c1.74-2.33,3.96-3.93,6.64-4.81l-0.83-2.44
			c-1.82,0.69-3.45,1.51-4.89,2.43c-1.44,0.93-2.68,1.96-3.72,3.1c-1.62,1.75-2.63,3.54-3.02,5.38c-0.1,0.42-0.15,0.84-0.17,1.28
			l-1.25,0.61v0.01v-0.01l-1.09,0.53c-0.85,0.44-1.4,0.67-1.66,0.67c-0.18-0.02-0.3-0.08-0.36-0.16c-0.12-0.09-0.19-0.19-0.19-0.29
			c0-0.11,0.01-0.21,0.02-0.32c0.06-0.29,0.25-0.75,0.57-1.36c0.68-1.25,1.26-2.4,1.74-3.46c0.1-0.26,0.26-0.62,0.47-1.08
			c0.11-0.29,0.2-0.57,0.28-0.83c0.06-0.25,0.11-0.5,0.16-0.76c0.04-0.25,0.05-0.46,0.04-0.63c-0.04-0.33-0.1-0.62-0.2-0.88
			c-0.11-0.26-0.24-0.5-0.41-0.72c-0.46-0.44-1-0.66-1.6-0.65c-0.8,0.01-1.82,0.51-3.06,1.49c-1.24,0.98-2.94,2.64-5.08,5
			l-0.42-0.24l5.18-11.35l-2.85-1.29c-1.83,3.84-3.65,8.05-5.45,12.61c-1.65,4.12-3.06,7.87-4.24,11.25
			c-0.86,2.41-1.67,4.77-2.41,7.07l3.09,0.68l2.86-7.56c0.51-1.29,1.01-2.45,1.49-3.47c0.49-1.02,1-2,1.53-2.93
			c1.27-2.14,2.78-4.11,4.52-5.89c0.78-0.77,1.47-1.16,2.04-1.17c0.46-0.01,0.69,0.15,0.69,0.48l0.05,0.35
			c-0.03,0.05-0.04,0.09-0.06,0.13c-0.05,0.26-0.17,0.57-0.35,0.94l-1.36,2.39c-0.59,1.08-0.94,1.82-1.07,2.23
			c-0.12,0.42-0.21,0.75-0.26,1c-0.1,0.47-0.14,0.88-0.12,1.24c0.01,0.55,0.2,1.03,0.58,1.44c0.38,0.38,0.96,0.56,1.73,0.54
			c0.67-0.01,1.68-0.36,3.01-1.06c0.6-0.33,1.07-0.6,1.39-0.81c0.48-0.3,0.93-0.6,1.35-0.9l0.7-2.53c-0.01,0.21,0,0.41,0.01,0.62
			c0.11,1.35,0.48,2.4,1.11,3.14c0.84,0.92,2.09,1.37,3.74,1.34c2.62-0.05,5.01-1.33,7.18-3.85c1.38-1.65,2.27-3.44,2.69-5.38
			c0.2-1.02,0.28-2.08,0.23-3.18l-0.1-1.01L728.43,587.87z"/>
		<path d="M791.28,597.1l-0.82,0.3l-0.27-0.12c-0.08-0.1-0.12-0.19-0.13-0.25c0-0.06,0.01-0.14,0.02-0.22
			c0.05-0.24,0.19-0.56,0.42-0.98l1.32-2.21c0.76-1.32,1.23-2.41,1.41-3.27c0.06-0.29,0.08-0.54,0.07-0.74
			c-0.04-0.61-0.26-1.03-0.65-1.27c-0.36-0.27-0.75-0.4-1.18-0.39c-0.65,0.01-1.43,0.3-2.36,0.89c-0.69,0.44-1.43,1.01-2.22,1.71
			c-0.79,0.7-1.67,1.59-2.66,2.65l-0.46-0.24l0.65-0.9l0.54-0.82c0.47-0.68,0.8-1.24,0.98-1.67c0.19-0.42,0.32-0.79,0.4-1.1
			c0.05-0.25,0.06-0.46,0.05-0.64c-0.04-0.67-0.35-1.18-0.92-1.51c-0.4-0.21-0.83-0.32-1.28-0.31c-0.54,0.01-1.19,0.24-1.93,0.68
			c-1.09,0.66-2.26,1.67-3.5,3.02l-1.26,1.34c-0.17,0.18-0.39,0.4-0.66,0.64c-0.26,0.25-0.54,0.49-0.84,0.73l-0.38-0.24l3.09-6.36
			l-3.04-1.47l-7.23,16.36l3.22,0.87c1.1-1.93,2.22-3.62,3.38-5.07c0.43-0.51,0.86-0.99,1.28-1.45c0.43-0.47,0.99-1.03,1.7-1.71
			l1.95-1.89c0.38-0.28,0.63-0.43,0.75-0.43c0.1,0.03,0.17,0.08,0.21,0.16l0.03,0.17l-0.08,0.29l-4.15,8.96l3.13,0.79
			c0.59-0.99,1.86-2.61,3.81-4.84c2.27-2.68,3.76-4.02,4.47-4.03c0.25,0,0.39,0.12,0.42,0.38c-0.01,0.02-0.02,0.03-0.02,0.05
			c-0.05,0.24-0.32,0.84-0.83,1.79l-1.1,1.92c-0.23,0.43-0.38,0.75-0.45,0.98c-0.07,0.22-0.13,0.45-0.18,0.68
			c-0.05,0.21-0.09,0.4-0.11,0.57c-0.01,0.17-0.01,0.33,0,0.47c0.02,0.13,0.09,0.38,0.22,0.74c0.12,0.41,0.34,0.68,0.66,0.83
			c0.29,0.19,0.7,0.28,1.22,0.27c0.59-0.01,1.33-0.22,2.22-0.62c0.89-0.4,2.39-1.21,4.5-2.42l0.79-2.88L791.28,597.1z"/>
		<path d="M668.72,591.44c-1.68,0.12-3.24,0.34-4.68,0.65c-1.45,0.31-2.81,0.72-4.1,1.25l2.89,2.92l1.06-0.65l1.55-0.71
			c1.87-0.76,4-1.15,6.38-1.19c1.55-0.02,3.22,0.12,5.01,0.41l0.67-2.32C674.57,591.35,671.64,591.22,668.72,591.44z"/>
		<path d="M875.33,592.12c-2.93-0.21-5.85-0.09-8.79,0.36l0.68,2.32c1.79-0.29,3.46-0.43,5-0.41c2.39,0.04,4.52,0.43,6.39,1.19
			l1.54,0.72l1.07,0.65l2.88-2.93c-1.28-0.52-2.65-0.94-4.09-1.25C878.56,592.46,877,592.24,875.33,592.12z"/>
		<path d="M793.03,581.58l1.73,0.05l1.26,0.18l1.55-3.91c-1.42,0.03-2.87,0.18-4.35,0.47c-1.49,0.29-3.04,0.71-4.67,1.27
			c-2.83,0.97-5.53,2.26-8.11,3.86l1.56,1.91c1.57-0.99,3.08-1.79,4.55-2.39C788.8,582.09,790.96,581.61,793.03,581.58z"/>
		<path d="M857.96,596.14c-0.54,0.01-0.82-0.27-0.86-0.83c0.01-0.06,0.02-0.15,0.01-0.27c0.02-0.1,0.03-0.2,0.06-0.29
			c0.05-0.22,0.13-0.5,0.23-0.81l0.48-1.11l3.25-7.7l-3.02-1.35l-0.32,0.86c-0.24-0.37-0.48-0.68-0.72-0.92
			c-0.24-0.24-0.49-0.44-0.75-0.59c-0.56-0.23-1.09-0.35-1.6-0.34c-2.1,0.04-4.07,1.11-5.89,3.23c-1.25,1.45-2.02,2.86-2.32,4.23
			c-0.1,0.5-0.14,1.01-0.13,1.53c0.04,0.34,0.12,0.65,0.21,0.93c0.09,0.27,0.24,0.51,0.44,0.71c0.36,0.44,0.98,0.65,1.85,0.63
			c0.86-0.02,1.66-0.24,2.4-0.66l0.15,0.24c-1.34,1.29-2.36,2.19-3.07,2.68c-0.86,0.61-1.64,0.92-2.36,0.93
			c-0.69,0.01-1.18-0.26-1.48-0.82c-0.19-0.37-0.3-0.83-0.34-1.4l0.05-0.68l0.17-0.99l-3.46,1.57l-0.03,0.39l-0.39,0.21l-1.19,0.62
			c-0.25,0.12-0.47,0.18-0.66,0.18c-0.44,0.01-0.68-0.21-0.71-0.67c0-0.14,0.01-0.25,0.03-0.33c0-0.05,0.02-0.14,0.06-0.25
			c0.04-0.11,0.08-0.2,0.12-0.27l4.06-8.66l-2.92-1.38c-0.83,1.59-1.8,3.05-2.92,4.37c-0.71,0.82-1.79,1.94-3.24,3.39
			c-0.69,0.7-1.22,1.22-1.6,1.58c-0.38,0.35-0.73,0.66-1.06,0.92c-0.43,0.36-0.82,0.54-1.17,0.54l-0.27-0.12
			c-0.12-0.09-0.19-0.22-0.19-0.39l-0.05-0.2l0.32-0.9l4.45-9.43l-2.98-1.41l-4.35,9.29c-0.94,2.06-1.52,3.63-1.73,4.69
			c-0.05,0.27-0.09,0.48-0.12,0.64c-0.02,0.16-0.02,0.3-0.01,0.42c0.04,0.65,0.24,1.16,0.59,1.55c0.35,0.38,0.81,0.57,1.37,0.56
			c0.87-0.01,1.95-0.49,3.26-1.43c1.3-0.94,2.77-2.3,4.39-4.08l0.83-0.9l0.91-0.86l0.17,0.2c-1.15,1.8-1.82,3.15-2.01,4.06
			c-0.03,0.12-0.05,0.27-0.06,0.46l0.04,0.76c0.05,0.31,0.13,0.56,0.26,0.77c0.13,0.21,0.29,0.38,0.48,0.5
			c0.37,0.24,0.77,0.36,1.21,0.35c0.27-0.01,0.67-0.1,1.18-0.29s1.12-0.45,1.81-0.78c0.63-0.31,1.16-0.6,1.58-0.85
			c0.29-0.17,0.56-0.33,0.8-0.48c0.2,0.48,0.5,0.89,0.91,1.25c0.75,0.68,1.79,1,3.11,0.98c1.6-0.03,3.38-0.91,5.35-2.64
			c1.04-0.92,2.17-2.18,3.38-3.78l0.78-0.98l0.34,0.24l-0.42,0.81c-0.17,0.32-0.34,0.65-0.5,0.98c-0.16,0.34-0.28,0.62-0.36,0.87
			c-0.07,0.24-0.16,0.47-0.25,0.67c-0.04,0.2-0.08,0.39-0.14,0.58c-0.07,0.4-0.1,0.76-0.08,1.08c0.05,1.35,0.89,2.01,2.52,1.98
			c0.68-0.02,1.56-0.29,2.62-0.84c1.07-0.54,2.03-1.18,2.88-1.93l0.75-2.88c-0.58,0.4-1.25,0.8-2,1.21
			C859.04,595.85,858.33,596.13,857.96,596.14z M853.01,591.06c-0.86,0.72-1.67,1.08-2.44,1.1c-0.33,0-0.62-0.1-0.86-0.31
			c-0.25-0.2-0.39-0.46-0.44-0.76l-0.01-0.44c0-0.05,0.01-0.14,0.02-0.27c0.01-0.08,0.03-0.17,0.05-0.26
			c0.2-0.89,0.73-1.77,1.61-2.66c1.05-1.03,2.04-1.56,2.97-1.58c0.2,0.01,0.48,0.08,0.85,0.2c0.36,0.13,0.67,0.39,0.94,0.78
			C855,588.71,854.11,590.11,853.01,591.06z"/>
		<path d="M826.03,585.98c-0.04-1.15-0.15-2.21-0.36-3.19c-0.2-0.98-0.49-1.95-0.86-2.9c-0.37-0.96-2.07-3.11-5.1-6.46l-2.05,3.03
			c1.85,1.73,3.13,3.24,3.86,4.52c0.72,1.28,1.17,2.54,1.35,3.77c0.09,0.61,0.15,0.96,0.16,1.07c0.05,0.31,0.08,0.67,0.1,1.09
			c0.02,0.42,0.03,0.73,0.01,0.94c-0.02,0.2-0.03,0.5-0.06,0.89c-0.02,0.11-0.05,0.28-0.07,0.53c-0.02,0.17-0.05,0.33-0.09,0.5
			c-0.42,1.98-1.31,3.72-2.68,5.23c-1.47,1.64-2.84,2.47-4.12,2.49c-0.47,0.01-0.85-0.18-1.15-0.57c-0.15-0.21-0.27-0.43-0.35-0.68
			s-0.13-0.55-0.14-0.9c-0.02-0.36,0.02-0.75,0.09-1.16c0.22-1.03,0.75-2.07,1.62-3.13c1.37-1.73,3.33-3.16,5.89-4.28l-1.15-2.06
			c-3.25,0.8-5.86,2.34-7.83,4.62c-1.27,1.47-2.06,2.96-2.38,4.46c-0.15,0.69-0.19,1.36-0.13,1.99c0.06,1.51,0.61,2.7,1.66,3.56
			c0.93,0.77,2.1,1.14,3.49,1.11c2.71-0.05,5.12-1.47,7.23-4.28c1.39-1.83,2.29-3.81,2.72-5.93
			C826,588.85,826.11,587.43,826.03,585.98z"/>
		<path d="M809.35,585.31c-1.77,3.24-3.62,5.96-5.53,8.17c-1.73,1.94-3.03,2.96-3.91,3.07l-0.33,0.01c-0.33,0-0.49-0.19-0.49-0.57
			l0.06-0.27c0.02-0.2,0.05-0.33,0.07-0.42c0.19-0.47,0.37-0.9,0.56-1.29c0.29-0.62,0.57-1.25,0.83-1.87l3.55-7.25l-3.07-1.48
			c-0.97,1.83-1.8,3.46-2.5,4.92c-0.69,1.46-1.3,2.81-1.81,4.04c-0.84,1.9-1.36,3.39-1.58,4.47c-0.07,0.35-0.13,0.63-0.17,0.84
			c-0.03,0.22-0.04,0.42-0.01,0.61c0,0.69,0.2,1.27,0.6,1.76c0.4,0.48,0.9,0.71,1.49,0.7c0.82-0.01,1.75-0.4,2.81-1.14
			c1.35-0.92,3.01-2.45,4.98-4.58l0.29,0.12l-1.42,2.57c-0.6,1.15-1.14,2.22-1.61,3.21c-0.56,1.11-1.04,2.13-1.44,3.06
			c-0.51,1.14-0.93,2.16-1.25,3.07c-0.32,0.91-0.57,1.76-0.73,2.54l3.59,0.7c0.2-0.95,0.58-2.18,1.13-3.67
			c0.42-1.11,1.03-2.62,1.84-4.54c0.52-1.32,1.11-2.71,1.76-4.16c0.58-1.33,1.26-2.82,2.02-4.46l3.29-6.75L809.35,585.31z"/>
	</g>
</g>
</svg>
